# xmcd CD database file
#
# Track frame offsets:
#	187
#	18213
#	34305
#	50411
#	64717
#	82255
#	97557
#	114355
#	129073
#	145193
#
# Disc length: 2174 seconds
#
# Revision: 0
# Processed by: cddbd v1.5.1PL0 Copyright (c) Steve Scherf et al.
# Submitted via: CDex 1.51
#
DISCID=75087c0a
DTITLE=八神純子 - 恋のスマッシュヒット
DYEAR=1900
DGENRE=JPop
TTITLE0=I Just Wanna Make A Hit Wit-Choo
TTITLE1=He's My Kind
TTITLE2=Manhattan
TTITLE3=Hey Kid
TTITLE4=Don't Wanna Be Lonely
TTITLE5=Broadway Kisses
TTITLE6=It's Always Been You
TTITLE7=The Heart
TTITLE8=We're Gonna Make It After All
TTITLE9=You'll Take The Best of Me
EXTD=
EXTT0=
EXTT1=
EXTT2=
EXTT3=
EXTT4=
EXTT5=
EXTT6=
EXTT7=
EXTT8=
EXTT9=
PLAYORDER=
